<svg height='300px' width='300px'  fill="#3366cc" xmlns="http://www.w3.org/2000/svg" viewBox="0 0 64 64" x="0px" y="0px"><g data-name="Technical suport"><path d="M59.456,48.142,47.435,36.122a1,1,0,0,0-1.414,0l-.707.707-2.122-2.122a1,1,0,0,0-1.414,0L40.36,36.125l-2-2,9.994-9.995,4.78.381a1.017,1.017,0,0,0,.786-.29l7.488-7.489a1,1,0,0,0,.276-.892L60.56,9.894a1,1,0,0,0-1.69-.521L52.542,15.7l-3.935-.308L48.3,11.458,54.627,5.13a1,1,0,0,0-.522-1.69L48.159,2.316a1,1,0,0,0-.892.275L39.778,10.08a1,1,0,0,0-.29.786l.381,4.78-10,9.994L17.565,13.331V9.494a1,1,0,0,0-.5-.868l-9.9-5.657a1,1,0,0,0-1.2.161L3.13,5.958a1,1,0,0,0-.161,1.2l5.657,9.9a1,1,0,0,0,.868.5h3.837L25.64,29.874l-9.994,10-4.78-.381a1.016,1.016,0,0,0-.786.29L2.591,47.267a1,1,0,0,0-.275.893L3.44,54.106a1,1,0,0,0,1.69.521L11.458,48.3l3.935.308.308,3.935L9.373,58.87a1,1,0,0,0,.521,1.69l5.946,1.124a.977.977,0,0,0,.186.018,1,1,0,0,0,.707-.293l7.489-7.489a1,1,0,0,0,.29-.786l-.381-4.78,9.995-9.994,2,2-1.419,1.418a1,1,0,0,0,0,1.414l2.121,2.122-.707.707a1,1,0,0,0,0,1.414L48.143,59.456A8,8,0,1,0,59.456,48.142ZM13.321,15.565H10.074L5.084,6.833,6.833,5.084l8.732,4.99v3.247Zm1.834,1,1.406-1.406,11.9,11.9L27.054,28.46Zm7.326,36.272-6.788,6.788-3.568-.675L17.44,53.63a1,1,0,0,0,.29-.785L17.32,47.6a1,1,0,0,0-.919-.919l-5.246-.41a.992.992,0,0,0-.785.29L5.054,51.875l-.675-3.568,6.788-6.788,4.78.38a1,1,0,0,0,.786-.29L41.609,16.733a1,1,0,0,0,.29-.786l-.38-4.78,6.788-6.788,3.568.675L46.56,10.37a1,1,0,0,0-.29.785l.41,5.246a1,1,0,0,0,.919.919l5.246.41a1,1,0,0,0,.785-.29l5.316-5.315.674,3.568-6.788,6.788-4.779-.38a.994.994,0,0,0-.786.29L22.391,47.267a1,1,0,0,0-.29.786ZM35.54,36.946l1.406-1.406,2,2L37.54,38.946Zm2.7,6.953-1.414-1.414,5.657-5.657L43.9,38.243Zm19.8,14.143a6,6,0,0,1-8.485,0L38.242,46.728l8.486-8.485L58.042,49.556A6.008,6.008,0,0,1,58.042,58.042Z"></path><path d="M53.092,56.92a.993.993,0,0,1-.707-.293l-8.9-8.9A1,1,0,0,1,44.9,46.314l8.9,8.9a1,1,0,0,1-.707,1.707Z"></path><path d="M55.92,54.092a1,1,0,0,1-.707-.293l-8.9-8.9a1,1,0,1,1,1.415-1.414l8.9,8.9a1,1,0,0,1-.707,1.707Z"></path></g></svg>